<svg width="130" height="133" xmlns="http://www.w3.org/2000/svg">
 <!-- Created with Method Draw - http://github.com/duopixel/Method-Draw/ -->
 <g>
  <title>background</title>
  <rect fill="none" id="canvas_background" height="135" width="132" y="-1" x="-1"/>
  <g display="none" overflow="visible" y="0" x="0" height="100%" width="100%" id="canvasGrid">
   <rect fill="url(#gridpattern)" stroke-width="0" y="0" x="0" height="100%" width="100%"/>
  </g>
 </g>
 <g>
  <title>Layer 1</title>
  <ellipse stroke="#fff" ry="60.624987" rx="60.624987" id="svg_3" cy="64.018879" cx="64.313644" stroke-width="5" fill="none"/>
  <ellipse stroke="#fff" transform="rotate(-38 40.272262573242166,26.230052947998043) " ry="4.846063" rx="2.376404" id="svg_9" cy="26.23006" cx="40.272254" fill="#fff"/>
  <ellipse stroke="#fff" transform="rotate(-1 62.81452941894555,16.964427947997955) " ry="4.721596" rx="2.212195" id="svg_11" cy="16.964433" cx="62.814527" fill="#fff"/>
  <ellipse stroke="#fff" transform="rotate(-42 50.443893432617195,39.62835311889649) " ry="4.983705" rx="2.257186" id="svg_12" cy="39.628355" cx="50.443887" fill="#fff"/>
  <ellipse stroke="#fff" transform="rotate(-71 47.684150695800774,62.751171112060554) " ry="6.602246" rx="3.077793" id="svg_13" cy="62.751164" cx="47.684143" fill="#fff"/>
  <ellipse stroke="#fff" transform="rotate(-120 41.122840881347656,80.52317810058594) " ry="4.359833" rx="2.124481" id="svg_14" cy="80.523177" cx="41.122831" fill="#fff"/>
  <ellipse stroke="#fff" transform="rotate(-102 17.997840881347656,68.11248779296875) " ry="5.127281" rx="2.378888" id="svg_15" cy="68.112477" cx="17.997839" fill="#fff"/>
  <ellipse stroke="#fff" transform="rotate(-97 36.033493041992166,70.27099609374999) " ry="5.855495" rx="2.398082" id="svg_16" cy="70.27099" cx="36.033503" fill="#fff"/>
  <ellipse stroke="#fff" transform="rotate(-84 28.073455810546893,60.490261077880874) " ry="5.584319" rx="2.302074" id="svg_17" cy="60.490256" cx="28.073459" fill="#fff"/>
  <ellipse stroke="#fff" transform="rotate(-74 16.30140686035156,51.0745964050293) " ry="4.359833" rx="2.124481" id="svg_18" cy="51.074602" cx="16.301408" fill="#fff"/>
  <ellipse stroke="#fff" transform="rotate(-69 33.003829956054695,49.93879318237305) " ry="6.095719" rx="2.898022" id="svg_19" cy="49.938788" cx="33.003824" fill="#fff"/>
  <ellipse stroke="#fff" transform="rotate(-64 23.125854492187493,38.309932708740234) " ry="4.359833" rx="2.44351" id="svg_20" cy="38.309932" cx="23.125857" fill="#fff"/>
  <ellipse stroke="#fff" transform="rotate(-51 48.97502136230468,51.45344161987304) " ry="5.209083" rx="2.613592" id="svg_21" cy="51.453434" cx="48.975024" fill="#fff"/>
  <ellipse stroke="#fff" transform="rotate(-50 36.43580627441407,37.10111618041993) " ry="6.189639" rx="2.696032" id="svg_22" cy="37.101118" cx="36.435808" fill="#fff"/>
  <ellipse stroke="#fff" transform="rotate(-8 53.29734802246094,26.848339080810565) " ry="5.592851" rx="2.844242" id="svg_23" cy="26.848337" cx="53.297357" fill="#fff"/>
  <ellipse stroke="#fff" transform="rotate(122 87.37187194824217,80.48902893066408) " ry="5.0413" rx="2.380041" id="svg_24" cy="80.489026" cx="87.371875" fill="#fff"/>
  <ellipse stroke="#fff" transform="rotate(96 91.85807800292967,70.5020751953125) " ry="6.313358" rx="2.390871" id="svg_25" cy="70.502064" cx="91.858074" fill="#fff"/>
  <ellipse stroke="#fff" transform="rotate(80 99.94236755371094,60.647869110107436) " ry="6.043551" rx="2.491702" id="svg_26" cy="60.647868" cx="99.942373" fill="#fff"/>
  <ellipse stroke="#fff" transform="rotate(75 111.30857849121094,51.353466033935554) " ry="5.291593" rx="2.124481" id="svg_27" cy="51.353462" cx="111.308562" fill="#fff"/>
  <ellipse stroke="#fff" transform="rotate(63 104.15852355957031,38.73746871948242) " ry="4.359833" rx="2.124481" id="svg_28" cy="38.737472" cx="104.15853" fill="#fff"/>
  <ellipse stroke="#fff" transform="rotate(65 95.0989227294922,50.10224533081054) " ry="6.048255" rx="2.798673" id="svg_29" cy="50.102242" cx="95.098907" fill="#fff"/>
  <ellipse stroke="#fff" transform="rotate(6 64.05110168457027,69.59691619873047) " ry="3.443868" rx="3.545227" id="svg_30" cy="69.596927" cx="64.051083" fill="#fff"/>
  <ellipse stroke="#fff" transform="rotate(65 80.02497863769534,62.67284774780273) " ry="6.716993" rx="2.798672" id="svg_31" cy="62.672841" cx="80.024968" fill="#fff"/>
  <ellipse stroke="#fff" transform="rotate(59 78.87712097167972,51.4233818054199) " ry="6.013336" rx="2.415504" id="svg_32" cy="51.423381" cx="78.877112" fill="#fff"/>
  <ellipse stroke="#fff" transform="rotate(44 91.06077575683595,36.89182662963867) " ry="6.122923" rx="2.445615" id="svg_33" cy="36.891833" cx="91.060773" fill="#fff"/>
  <ellipse stroke="#fff" transform="rotate(33 87.03355407714844,26.37427902221679) " ry="5.048386" rx="2.124481" id="svg_34" cy="26.374284" cx="87.033547" fill="#fff"/>
  <ellipse stroke="#fff" transform="rotate(47 74.87342834472655,41.08417892456055) " ry="6.364775" rx="2.428945" id="svg_35" cy="41.084184" cx="74.87342" fill="#fff"/>
  <ellipse stroke="#fff" transform="rotate(-21 63.526199340820355,54.05805587768553) " ry="5.709159" rx="2.739966" id="svg_36" cy="54.058057" cx="63.526201" fill="#fff"/>
  <ellipse stroke="#fff" transform="rotate(10 74.25566101074224,26.955379486083977) " ry="5.670639" rx="2.569211" id="svg_37" cy="26.955387" cx="74.255659" fill="#fff"/>
  <ellipse stroke="#fff" transform="rotate(12 62.94844055175779,35.29848861694334) " ry="5.76267" rx="2.299151" id="svg_38" cy="35.298485" cx="62.948425" fill="#fff"/>
  <ellipse stroke="#fff" transform="rotate(97 109.60496520996095,67.84459686279297) " ry="4.623621" rx="2.077969" id="svg_39" cy="67.844603" cx="109.604955" fill="#fff"/>
  <path id="svg_40" d="m53.98122,77.631651c0,0 3.103437,5.057453 3.103428,4.942517" opacity="0.5" fill-opacity="null" stroke="#fff" fill="none"/>
  <path id="svg_41" d="m63.176589,86.137368" opacity="0.5" fill-opacity="null" stroke="#fff" fill="none"/>
  <path id="svg_43" d="m64.045698,113.625344c0,0 5.057453,2.75861 5.057443,2.643673c0.00001,0.114937 7.816074,1.609185 7.816064,1.494248c0.00001,0.114937 -3.908022,-4.252863 -3.908032,-4.3678c0.00001,0.114937 -2.643659,-3.448269 -2.643669,-3.563206c0.00001,0.114937 -1.034469,-4.137921 -1.034479,-4.252858c0.00001,0.114937 0.114952,-21.034413 0.114942,-21.149349c0.00001,0.114936 2.758621,-5.63217 2.758611,-5.747106c0.00001,0.114936 6.666653,-6.436765 6.666643,-6.5517c0.00001,0.114935 -7.471228,2.183894 -7.471238,2.068958c0.00001,0.114936 -7.241343,6.206868 -7.241353,6.091932c0.00001,0.114936 -7.011459,-5.402286 -7.011469,-5.517222c0.00001,0.114936 -8.045938,-2.988501 -8.045948,-3.103437c0.00001,0.114936 6.781595,9.770074 6.781585,9.655138c0.00001,0.114936 2.068968,3.678141 2.068958,3.563205c0.00001,0.114936 -0.459759,20.804518 -0.459768,20.689581c0.000009,0.114937 -1.724122,5.402274 -1.724132,5.287337c0.00001,0.114937 -2.413775,3.678143 -2.413784,3.563206c0.000009,0.114937 -2.528718,2.873547 -2.528727,2.75861c0.000009,0.114937 8.045958,-1.149426 8.045948,-1.264363c0.00001,0.114937 5.172405,-2.298847 5.172405,-2.298847z" stroke="#fff" fill="#fff"/>
 </g>
</svg>